<svg xmlns="http://www.w3.org/2000/svg" width="19.673" height="9.525" viewBox="0 0 19.673 9.525">
  <path id="Path_15" data-name="Path 15" d="M648.256,65.941c-.053-.186-.335-1.678-.335-1.678a33.471,33.471,0,0,1,6.236-.025,1.206,1.206,0,0,1,.657.2c.12.1,2.019,1.8,2.019,1.8s-7.615.081-8.025.087-.5-.2-.551-.385" transform="translate(-641.969 -63.577)" fill="#fff"/>
  <path id="Path_17" data-name="Path 17" d="M641.636,69.851c0-.022,0-.043,0-.064a3.3,3.3,0,0,1-.071-2.2,2.21,2.21,0,0,1,.395-1.556l.413-.256a6.43,6.43,0,0,0,1.018-.962,4.924,4.924,0,0,1,1.155-.96l.617-.256a1.267,1.267,0,0,1,.552-.034,32.586,32.586,0,0,1,5.83.01l.342.025c1.237.085,1.472.239,1.752.484l.022.02c.146.127.953.837,1.569,1.379.033-.131.205-.154.273-.138.1.025.573.132.758.2a.291.291,0,0,1,.174.337c-.017.063-.063.186-.1.281a2.132,2.132,0,0,1,.947.446,1.543,1.543,0,0,1,1.454.9c.133.092.486.375.339.723a1.967,1.967,0,0,1,.261.741c0,.143.023.782.04,1.3.015.418.023.676.023.726a.662.662,0,0,1-.654.72h-.07a1.423,1.423,0,0,1-.756.893l2.081.352H645.691l-5.365-1.716,1.568.24a4.18,4.18,0,0,1-.258-1.629m5.834.616c-.036-1.033-.318-1.862-.63-1.851s-.536.857-.5,1.89.318,1.861.63,1.85.536-.857.5-1.889m-1.27.044c-.046-1.3.227-2.371.609-2.385l.1,0a.334.334,0,0,0-.237-.1c-.372.038-.827,1.157-.665,2.757.017.162.038.324.063.482l.035.215-2.473-.527a1.431,1.431,0,0,1-.294.755l3.2.66a5.628,5.628,0,0,1-.333-1.857m-4.076.849c.195,0,.353-.676.353-1.509s-.158-1.51-.353-1.51-.353.676-.353,1.51.158,1.509.353,1.509m16.949-.19h-.38a.728.728,0,0,1-.5-.245l-.379-.469c-.109-.136-.064-.246.1-.246h1.156c-.018-.526-.038-1.1-.038-1.241a1.472,1.472,0,0,0-.172-.5c-.186.089-.732.312-.952-.019-.1-.145,0-.344.162-.513l.357-.361a1.208,1.208,0,0,0-1.181-.667l-.083.012-.054-.063a2,2,0,0,0-1.272-.479l-.048-.005-.035-.031c-.021-.018-2.052-1.808-2.292-2.016l-.023-.02c-.21-.184-.376-.329-1.576-.411l-.345-.026a32.4,32.4,0,0,0-5.8-.008l-.03,0-.028-.008c-.008,0-.8-.2-2.054,1.16a3.748,3.748,0,0,1-1.321,1.118c-.1.036-.462.471-.427,1.373l.475.362a3.041,3.041,0,0,1,.279.854,11.863,11.863,0,0,1,.185,1.256l.033.255a.983.983,0,0,0,.092.264l2.815.6q-.019-.142-.033-.284c-.163-1.6.264-3.016.932-3.084.334-.034.654.261.925.852a6.211,6.211,0,0,1,.452,1.628h1.729c.164,0,.21.11.1.246l-.378.469a.726.726,0,0,1-.5.245h-.866c0,.127.006.252,0,.375l10.632-.133a.321.321,0,0,0,.331-.241m-10.265.665a3.539,3.539,0,0,1-.118.507l7.933.186a1.422,1.422,0,0,1-.606-.783Z" transform="translate(-640.326 -63.432)" fill="#fff"/>
  <path id="Path_19" data-name="Path 19" d="M659.88,70.776l-.013.01-.014.006a6.455,6.455,0,0,1-1.983.439h-.013a7.722,7.722,0,0,1-2.49-.493l-.027-.012-.017-.022c-.023-.029-.574-.7-.7-.893a.331.331,0,0,1,.009-.33.488.488,0,0,1,.448-.241h5a.52.52,0,0,1,.424.144.289.289,0,0,1,.034.269,2.722,2.722,0,0,1-.666,1.121" transform="translate(-643.411 -64.689)" fill="#fff"/>
  <path id="Path_20" data-name="Path 20" d="M650.09,68.557c.4.071,2.538.615,2.538.615a.554.554,0,0,1,.351.444c0,.166-.241.183-.7.179s-1.288-.085-1.534-.114a1.161,1.161,0,0,1-.826-.551c-.157-.326-.267-.648.169-.572" transform="translate(-642.372 -64.538)" fill="#fff"/>
</svg>
