<svg id="Group_3" data-name="Group 3" xmlns="http://www.w3.org/2000/svg" xmlns:xlink="http://www.w3.org/1999/xlink" width="62.303" height="50.169" viewBox="0 0 62.303 50.169">
  <defs>
    <clipPath id="clip-path">
      <rect id="Rectangle_3" data-name="Rectangle 3" width="62.303" height="50.169" fill="none"/>
    </clipPath>
  </defs>
  <g id="Group_2" data-name="Group 2" clip-path="url(#clip-path)">
    <path id="Path_1" data-name="Path 1" d="M42.768,15.932l-3.4-3.4A3.771,3.771,0,1,1,44.7,7.194l4.179,4.179,6.056,6.056a11.488,11.488,0,0,1,2.443,3.614l3.005,7.038a11.493,11.493,0,0,1-2.443,12.641l-5.08,5.08A11.5,11.5,0,0,1,41.008,48.55L30.056,44.8a11.491,11.491,0,0,1-2.668-1.319l-11.38-7.609a3.043,3.043,0,0,1,2.5-5.465l6.089,2.8a1.193,1.193,0,0,0,1.159-1.994L11.623,17.08A3.874,3.874,0,1,1,17.1,11.6l8.671,8.672L29,23.5l0,0-3.226-3.226a3.771,3.771,0,0,1,5.333-5.334l4.777,4.777L32.671,16.5A3.771,3.771,0,0,1,38,11.168Z" transform="translate(0 0)" fill="none" stroke="#231f20" stroke-linecap="round" stroke-linejoin="round" stroke-width="2"/>
    <line id="Line_1" data-name="Line 1" x2="3.58" y2="3.58" transform="translate(5.051 5.05)" fill="none" stroke="#231f20" stroke-linecap="round" stroke-linejoin="round" stroke-width="2"/>
    <line id="Line_2" data-name="Line 2" x1="3.58" y2="3.58" transform="translate(21.029 5.05)" fill="none" stroke="#231f20" stroke-linecap="round" stroke-linejoin="round" stroke-width="2"/>
    <line id="Line_3" data-name="Line 3" x1="3.58" y2="3.58" transform="translate(5.051 21.029)" fill="none" stroke="#231f20" stroke-linecap="round" stroke-linejoin="round" stroke-width="2"/>
    <line id="Line_4" data-name="Line 4" y2="5.063" transform="translate(14.83 1)" fill="none" stroke="#231f20" stroke-linecap="round" stroke-linejoin="round" stroke-width="2"/>
    <line id="Line_5" data-name="Line 5" x2="5.063" transform="translate(1 14.829)" fill="none" stroke="#231f20" stroke-linecap="round" stroke-linejoin="round" stroke-width="2"/>
  </g>
</svg>
