<svg xmlns="http://www.w3.org/2000/svg" width="47" height="48" viewBox="0 0 47 48">
  <ellipse id="Ellipse_2" data-name="Ellipse 2" cx="23.5" cy="24" rx="23.5" ry="24" fill="#fffd01"/>
  <path id="Icon_akar-instagram-fill" data-name="Icon akar-instagram-fill" d="M9.723,1.584c1.492-.069,1.968-.084,5.769-.084s4.276.017,5.767.084a10.3,10.3,0,0,1,3.4.65,7.163,7.163,0,0,1,4.091,4.092,10.29,10.29,0,0,1,.651,3.4c.069,1.495.084,1.97.084,5.77s-.017,4.276-.084,5.769a10.258,10.258,0,0,1-.651,3.4,7.143,7.143,0,0,1-4.091,4.092,10.29,10.29,0,0,1-3.4.651c-1.493.069-1.969.084-5.77.084s-4.276-.017-5.769-.084a10.258,10.258,0,0,1-3.4-.651,6.865,6.865,0,0,1-2.479-1.613,6.859,6.859,0,0,1-1.614-2.478,10.327,10.327,0,0,1-.65-3.4c-.069-1.495-.084-1.97-.084-5.77s.017-4.276.084-5.767a10.3,10.3,0,0,1,.65-3.4A6.864,6.864,0,0,1,3.849,3.848,6.859,6.859,0,0,1,6.326,2.234a10.327,10.327,0,0,1,3.4-.65ZM21.146,4.1c-1.476-.067-1.918-.081-5.654-.081s-4.179.014-5.654.081a7.734,7.734,0,0,0-2.6.482A4.345,4.345,0,0,0,5.63,5.63,4.34,4.34,0,0,0,4.585,7.239a7.734,7.734,0,0,0-.482,2.6c-.067,1.476-.081,1.918-.081,5.654s.014,4.179.081,5.654a7.734,7.734,0,0,0,.482,2.6A4.621,4.621,0,0,0,7.239,26.4a7.733,7.733,0,0,0,2.6.482c1.476.067,1.917.081,5.654.081s4.179-.014,5.654-.081a7.733,7.733,0,0,0,2.6-.482A4.621,4.621,0,0,0,26.4,23.745a7.733,7.733,0,0,0,.482-2.6c.067-1.476.081-1.918.081-5.654s-.014-4.179-.081-5.654a7.733,7.733,0,0,0-.482-2.6,4.621,4.621,0,0,0-2.655-2.655,7.734,7.734,0,0,0-2.6-.482ZM13.7,19.805a4.668,4.668,0,1,0-2.88-4.313,4.667,4.667,0,0,0,2.88,4.313Zm-3.3-9.4a7.192,7.192,0,1,1,0,10.171,7.192,7.192,0,0,1,0-10.171ZM24.279,9.371a1.7,1.7,0,1,0-2.37-.035,1.7,1.7,0,0,0,2.37.035Z" transform="translate(8.662 9.694)" fill="#13103f"/>
</svg>
