<svg xmlns="http://www.w3.org/2000/svg" width="49" height="49" viewBox="0 0 49 49">
  <circle id="Ellipse_3" data-name="Ellipse 3" cx="24.5" cy="24.5" r="24.5" fill="#fffd01"/>
  <path id="Icon_akar-linkedin-fill" data-name="Icon akar-linkedin-fill" d="M13.395,12.751h5.2V15.34c.749-1.489,2.668-2.826,5.552-2.826,5.528,0,6.841,2.964,6.841,8.4v10.07h-5.6V22.152c0-3.1-.749-4.843-2.654-4.843-2.643,0-3.741,1.882-3.741,4.841v8.833h-5.6V12.751Zm-9.6,18h5.6V12.513H3.8V30.746ZM10.2,6.568A3.54,3.54,0,0,1,9.142,9.089,3.6,3.6,0,0,1,3,6.568,3.546,3.546,0,0,1,4.054,4.045a3.62,3.62,0,0,1,5.089,0A3.552,3.552,0,0,1,10.2,6.568Z" transform="translate(8.13 8.194)" fill="#13103f"/>
</svg>
