<?xml version="1.0" encoding="UTF-8"?>
<svg id="a" data-name="Layer 1" xmlns="http://www.w3.org/2000/svg" width="500" height="500" viewBox="0 0 500 500">
  <path d="M384.35,384.35c-34.399,34.391-81.868,55.647-134.35,55.65-52.483-.002-99.951-21.259-134.35-55.65-34.391-34.399-55.647-81.867-55.65-134.35.003-52.483,21.259-99.951,55.65-134.35,34.399-34.391,81.867-55.647,134.35-55.65,52.483.002,99.951,21.259,134.35,55.65,34.391,34.399,55.647,81.867,55.65,134.35-.002,52.483-21.259,99.951-55.65,134.35Z" fill="none" stroke="#231f20" stroke-miterlimit="10"/>
  <path d="M250,50c-110.459.003-199.997,89.541-200,200,.003,110.459,89.541,199.997,200,200,110.459-.003,199.997-89.541,200-200-.003-110.459-89.541-199.997-200-200Z" fill="#fff"/>
  <path d="M384.35,384.35c-34.399,34.391-81.868,55.647-134.35,55.65-52.483-.002-99.951-21.259-134.35-55.65-34.391-34.399-55.647-81.867-55.65-134.35.003-52.483,21.259-99.951,55.65-134.35,34.399-34.391,81.867-55.647,134.35-55.65,52.483.002,99.951,21.259,134.35,55.65,34.391,34.399,55.647,81.867,55.65,134.35-.002,52.483-21.259,99.951-55.65,134.35Z" fill="#13103f"/>
  <path d="M250,94.333c-85.974.003-155.664,69.693-155.667,155.667.003,85.974,69.693,155.664,155.667,155.667,85.974-.003,155.664-69.693,155.667-155.667-.003-85.974-69.693-155.664-155.667-155.667Z" fill="#fff"/>
  <path d="M354.416,354.416c-26.735,26.729-63.627,43.249-104.416,43.25-40.79-.002-77.681-16.522-104.416-43.25-26.729-26.735-43.249-63.627-43.251-104.416.002-40.79,16.522-77.681,43.251-104.416,26.735-26.729,63.627-43.249,104.416-43.25,40.79.002,77.681,16.522,104.416,43.25,26.729,26.735,43.249,63.627,43.251,104.416-.002,40.79-16.522,77.681-43.251,104.416Z" fill="#13103f"/>
  <path d="M293.333,372.592V127.407c-5.88-2.078-11.953-3.746-18.187-4.968l-25.146,71.84-25.146-71.84c-6.234,1.222-12.307,2.89-18.187,4.968v245.185c5.612,1.984,11.398,3.6,17.333,4.805v-192.397l26,65,26-65v192.397c5.936-1.205,11.721-2.821,17.333-4.805Z" fill="#fffd01"/>
  <path d="M120,250c0,38.497,16.741,73.076,43.333,96.877v-24.895c-16.467-19.84-26-45.145-26-71.982h43.333v109.961c5.514,3.484,11.3,6.575,17.333,9.212v-238.345c-45.911,20.062-78,65.866-78,119.172ZM180.667,232.667h-41.985c4.416-28.402,19.529-53.952,41.985-71.493v71.493Z" fill="#fff"/>
  <path d="M359.984,319.3c12.67-20.061,20.016-43.818,20.016-69.3,0-53.307-32.089-99.111-78-119.172v238.345c18.538-8.101,34.819-20.402,47.647-35.697l7.689,7.689c3.778-4.444,7.284-9.125,10.495-14.018l-7.847-7.847ZM347.362,306.678l-7.502-7.502-12.257,12.257,9.74,9.74c-5.295,6.503-11.327,12.434-18.01,17.655v-177.653c26.946,21.048,43.333,53.625,43.333,88.827,0,20.344-5.483,39.806-15.305,56.678Z" fill="#fff"/>
</svg>